<svg width="12" height="6" viewBox="0 0 12 6" fill="none" xmlns="http://www.w3.org/2000/svg">
<path d="M11.7676 0.204088C11.8413 0.268351 11.8997 0.344691 11.9396 0.428739C11.9795 0.512786 12 0.602889 12 0.693885C12 0.784882 11.9795 0.874984 11.9396 0.959031C11.8997 1.04308 11.8413 1.11942 11.7676 1.18368L6.44618 5.83815C6.38764 5.88945 6.3181 5.93016 6.24156 5.95793C6.16501 5.9857 6.08296 6 6.00008 6C5.91721 6 5.83516 5.9857 5.75861 5.95793C5.68206 5.93016 5.61253 5.88945 5.55399 5.83815L0.232537 1.18368C-0.0775118 0.912496 -0.0775118 0.475276 0.232537 0.204088C0.542586 -0.0670996 1.04246 -0.0670996 1.35251 0.204088L5.99692 4.26637L10.6477 0.198554C10.9577 -0.0671 11.4576 -0.0670996 11.7676 0.204088Z" fill="black"/>
</svg>
