<svg width="12" height="6" viewBox="0 0 12 6" fill="none" xmlns="http://www.w3.org/2000/svg">
<path d="M11.7676 5.79591C11.8413 5.73165 11.8997 5.65531 11.9396 5.57126C11.9795 5.48721 12 5.39711 12 5.30612C12 5.21512 11.9795 5.12502 11.9396 5.04097C11.8997 4.95692 11.8413 4.88058 11.7676 4.81632L6.44618 0.161851C6.38764 0.110545 6.3181 0.0698406 6.24156 0.0420679C6.16501 0.0142953 6.08296 0 6.00008 0C5.91721 0 5.83516 0.0142953 5.75861 0.0420679C5.68206 0.0698406 5.61253 0.110545 5.55399 0.161851L0.232537 4.81632C-0.0775118 5.0875 -0.0775118 5.52472 0.232537 5.79591C0.542586 6.0671 1.04246 6.0671 1.35251 5.79591L5.99692 1.73363L10.6477 5.80145C10.9577 6.0671 11.4576 6.0671 11.7676 5.79591Z" fill="black"/>
</svg>
